<svg width="499" height="464" viewBox="0 0 499 464" fill="none" xmlns="http://www.w3.org/2000/svg">
<path d="M262.03 415.683L94.6484 318.933V314.471L262.03 411.206L430.46 313.858V318.335L262.03 415.683Z" fill="#7471FF"/>
<path d="M262.03 411.206L94.6484 314.471L263.079 217.123L430.46 313.858L262.03 411.206Z" fill="#EBF5F8"/>
<path d="M219.86 261.451L214.471 264.557L219.817 267.663L225.206 264.543L219.86 261.451Z" fill="#072359"/>
<path d="M203.619 283.222L219.787 273.875L214.427 270.769L209.081 267.678L203.692 270.798L209.037 273.89L192.869 283.236L198.229 286.328L192.84 289.448L187.479 286.357L182.119 283.251L176.729 286.372L182.09 289.463L176.7 292.583L182.061 295.675L187.45 292.554L192.811 295.66L187.406 298.766L192.767 301.872L203.546 295.631L198.2 292.54L203.59 289.419L208.935 292.525L214.325 289.405L208.979 286.313L203.619 283.222Z" fill="#072359"/>
<path d="M219.759 280.087L214.369 283.193L219.715 286.299L225.105 283.178L219.759 280.087Z" fill="#072359"/>
<path d="M208.906 298.737L214.267 301.828L219.613 304.92L225.002 301.814L219.656 298.708L214.296 295.616L208.935 292.525L203.546 295.631L208.906 298.737Z" fill="#072359"/>
<path d="M214.325 289.405L219.686 292.496L225.075 289.39L219.715 286.299L214.325 289.405Z" fill="#072359"/>
<path d="M246.633 276.923L241.273 273.831L235.927 270.74L225.148 276.966L230.494 280.058L235.854 283.164L225.075 289.39L230.436 292.481L235.825 289.361L241.186 292.467L246.575 289.346L241.215 286.255L246.604 283.134L241.244 280.043L246.633 276.923Z" fill="#072359"/>
<path d="M208.877 304.949L203.516 301.843L198.127 304.963L203.487 308.055L208.833 311.161L214.223 308.04L208.877 304.949Z" fill="#072359"/>
<path d="M230.392 298.693L235.752 301.785L241.113 304.89L251.892 298.649L246.531 295.558L241.142 298.679L235.796 295.573L230.435 292.481L225.046 295.602L230.392 298.693Z" fill="#072359"/>
<path d="M257.354 283.12L251.994 280.028L246.604 283.134L251.965 286.24L257.311 289.332L262.7 286.211L257.354 283.12Z" fill="#072359"/>
<path d="M289.662 270.638L284.272 273.758L289.618 276.85L295.008 273.729L289.662 270.638Z" fill="#072359"/>
<path d="M295.052 267.517L300.398 270.623L305.787 267.503L300.441 264.411L295.052 267.517Z" fill="#072359"/>
<path d="M311.148 270.594L316.537 267.488L311.177 264.382L305.787 267.503L311.148 270.594Z" fill="#072359"/>
<path d="M294.949 286.153L300.339 283.047L294.978 279.941L289.618 276.85L284.228 279.97L278.868 276.864L273.479 279.985L278.839 283.076L284.199 286.182L289.589 283.061L294.949 286.153Z" fill="#072359"/>
<path d="M305.729 279.926L311.118 276.806L305.758 273.715L300.368 276.835L305.729 279.926Z" fill="#072359"/>
<path d="M284.171 292.379L289.56 289.273L284.2 286.182L278.81 289.288L273.45 286.197L268.09 283.105L262.7 286.211L268.06 289.302L262.671 292.423L257.31 289.332L251.921 292.438L257.281 295.543L262.642 298.635L241.084 311.102L246.429 314.194L241.04 317.314L235.694 314.208L230.334 311.117L235.723 307.996L230.363 304.905L203.415 320.478L208.775 323.584L224.944 314.237L230.304 317.329L214.121 326.676L219.482 329.767L230.261 323.541L235.621 326.632L241.011 323.526L246.371 326.617L251.717 329.709L246.327 332.829L251.688 335.92L257.077 332.8L262.438 335.906L273.217 329.665L267.856 326.574L262.467 329.694L257.107 326.588L262.511 323.482L257.15 320.391L251.761 323.497L246.4 320.405L251.79 317.285L257.15 320.391L262.54 317.27L257.179 314.179L251.819 311.073L273.392 298.62L268.031 295.514L273.421 292.408L278.781 295.5L273.392 298.62L278.738 301.712L289.517 295.485L284.171 292.379Z" fill="#072359"/>
<path d="M230.231 329.752L224.842 332.858L230.202 335.964L235.592 332.844L230.231 329.752Z" fill="#072359"/>
<path d="M267.958 307.938L273.318 311.044L284.097 304.803L278.737 301.712L267.958 307.938Z" fill="#072359"/>
<path d="M321.824 283.003L332.603 276.777L327.258 273.671L316.464 279.912L321.824 283.003Z" fill="#072359"/>
<path d="M273.29 317.256L267.93 314.15L262.54 317.27L267.9 320.362L273.29 317.256Z" fill="#072359"/>
<path d="M246.298 339.041L240.938 335.95L235.549 339.07L230.188 335.979L219.409 342.205L214.049 339.114L208.688 336.022L203.328 332.931L208.717 329.811L203.357 326.719L197.997 323.628L171.049 339.201L176.409 342.293L181.77 345.384L187.13 348.475L197.909 342.249L192.549 339.158L187.159 342.278L181.799 339.187L187.188 336.066L192.549 339.158L197.938 336.037L203.299 339.128L197.909 342.249L203.27 345.34L192.49 351.567L197.851 354.658L203.211 357.749L208.572 360.841L213.932 363.932L219.293 367.023L224.682 363.903L219.322 360.811L213.961 357.72L208.601 354.629L203.24 351.537L214.019 345.311L219.38 348.402L224.74 351.494L219.351 354.614L224.711 357.706L235.49 351.479L240.851 354.57L246.24 351.45L240.88 348.359L246.269 345.238L240.909 342.147L246.298 339.026V339.041ZM230.13 348.388L224.769 345.296L230.159 342.176L235.519 345.267L230.13 348.388Z" fill="#072359"/>
<path d="M284.068 311.015L278.679 314.135L284.025 317.226L289.385 320.332L294.775 317.212L289.414 314.121L284.068 311.015Z" fill="#072359"/>
<path d="M327.156 292.306L332.546 289.186L337.892 292.292L343.281 289.171L348.642 292.263L354.002 295.368L343.223 301.595L348.583 304.686L364.752 295.339L359.392 292.248L354.031 289.157L348.671 286.065L343.325 282.959L337.965 279.868L321.796 289.215L327.156 292.306Z" fill="#072359"/>
<path d="M251.688 335.92L246.299 339.041L251.659 342.132L246.27 345.253L251.63 348.344L262.409 342.118L267.755 345.209L273.115 348.3L278.505 345.194L273.144 342.089L278.534 338.983L273.188 335.877L267.799 338.997L262.438 335.906L257.049 339.012L251.688 335.92Z" fill="#072359"/>
<path d="M283.996 323.438L278.636 320.347L273.246 323.468L278.607 326.559L283.967 329.65L289.356 326.53L283.996 323.438Z" fill="#072359"/>
<path d="M300.106 326.515L305.452 329.607L310.813 332.712L316.202 329.592L310.842 326.501L305.496 323.409L300.136 320.303L294.746 323.424L300.106 326.515Z" fill="#072359"/>
<path d="M327.01 317.154L332.399 314.033L327.054 310.942L321.664 314.062L327.01 317.154Z" fill="#072359"/>
<path d="M337.833 304.715L332.472 301.624L337.862 298.504L332.501 295.412L310.943 307.88L305.583 304.788L310.972 301.668L305.612 298.577L311.002 295.456L316.362 298.547L321.752 295.427L316.391 292.336L311.031 289.244L316.42 286.124L311.06 283.032L289.502 295.5L294.862 298.591L284.083 304.818L289.443 307.909L294.833 304.788L300.193 307.88L305.554 310.971L294.775 317.197L300.135 320.289L305.525 317.168L310.885 320.26L316.245 323.351L321.606 326.442L326.966 329.534L321.577 332.654L326.937 335.745L337.716 329.519L332.356 326.428L337.745 323.307L343.106 326.399L348.495 323.278L343.135 320.187L348.524 317.066L353.885 320.158L359.245 323.249L337.687 335.716L343.047 338.808L375.385 320.114L370.024 317.022L364.635 320.143L359.274 317.052L353.914 313.96L359.304 310.84L353.943 307.748L348.583 304.657L343.193 307.778L337.833 304.686V304.715ZM343.149 314.019L326.981 323.366L321.62 320.274L316.26 317.183L310.9 314.092L327.068 304.745L332.429 307.836L337.789 310.927L343.149 314.019Z" fill="#072359"/>
<path d="M289.226 351.377L283.865 348.286L278.476 351.406L283.821 354.498L289.182 357.589L294.542 360.695L299.903 363.786L305.249 366.878L310.638 363.757L305.292 360.666L299.932 357.574L305.321 354.454L310.682 357.56L316.071 354.439L310.711 351.348L305.35 348.242L294.571 354.483L289.226 351.377Z" fill="#072359"/>
<path d="M310.783 338.924L305.423 335.818L300.033 338.939L294.673 335.847L300.062 332.727L294.702 329.636L283.923 335.862L289.283 338.953L294.644 342.059L289.254 345.165L294.615 348.271L305.394 342.03L310.739 345.136L316.1 348.227L321.46 351.319L326.85 348.213L321.489 345.107L332.268 338.88L326.908 335.789L316.129 342.016L310.783 338.924Z" fill="#072359"/>
<path d="M370.039 310.869L364.649 313.975L369.995 317.081L375.385 313.96L370.039 310.869Z" fill="#072359"/>
<path d="M380.775 310.84L386.179 307.734L380.818 304.628L375.458 301.536L364.679 307.763L370.039 310.869L375.429 307.748L380.775 310.84Z" fill="#072359"/>
<path d="M380.745 317.052L375.355 320.172L380.716 323.263L396.884 313.917L391.524 310.825L386.135 313.946L380.774 310.84L375.385 313.96L380.745 317.052Z" fill="#072359"/>
<path d="M337.6 348.184L332.239 345.092L326.85 348.213L332.21 351.304L337.6 348.184Z" fill="#072359"/>
<path d="M342.989 345.078L348.379 341.957L343.018 338.866L337.629 341.972L342.989 345.078Z" fill="#072359"/>
<path d="M198.098 311.175L192.738 308.084L187.377 304.992L182.017 301.901L176.657 298.81L171.296 295.718L165.936 292.627L128.209 314.427L133.569 317.518L138.93 320.61L144.29 323.701L149.651 326.792L155.011 329.884L160.371 332.975L165.732 336.066L203.459 314.266L198.098 311.175ZM165.761 329.869L160.401 326.778L155.04 323.686L149.68 320.595L144.319 317.504L138.959 314.412L165.907 298.839L171.267 301.93L176.627 305.022L181.988 308.113L187.348 311.204L192.709 314.296L165.761 329.869Z" fill="#072359"/>
<path d="M165.79 323.657L181.959 314.31L165.892 305.022L149.724 314.369L165.79 323.657Z" fill="#072359"/>
<path d="M225.25 258.331L230.61 261.422L235.971 264.513L241.331 267.605L246.692 270.696L252.052 273.787L257.412 276.879L262.773 279.97L300.5 258.17L295.139 255.079L289.779 251.988L284.418 248.896L279.058 245.805L273.698 242.714L268.337 239.622L262.977 236.531L225.25 258.331ZM268.308 245.834L273.668 248.926L279.029 252.017L284.389 255.108L289.75 258.2L262.802 273.773L257.442 270.682L252.081 267.59L246.721 264.499L241.36 261.408L236 258.316L262.948 242.743L268.308 245.834Z" fill="#072359"/>
<path d="M262.904 248.955L246.735 258.287L262.802 267.576L278.971 258.229L262.904 248.955Z" fill="#072359"/>
<path d="M229.998 373.221L235.359 376.312L240.719 379.403L246.079 382.495L251.44 385.586L256.8 388.677L262.161 391.769L299.887 369.969L294.527 366.877L289.167 363.786L283.806 360.695L278.446 357.603L273.085 354.512L267.725 351.421L262.364 348.329L224.638 370.129L229.998 373.221ZM262.335 354.527L267.696 357.618L273.056 360.709L278.417 363.801L283.777 366.892L289.137 369.983L262.19 385.557L256.829 382.465L251.469 379.374L246.108 376.283L240.748 373.191L235.388 370.1L262.335 354.527Z" fill="#072359"/>
<path d="M262.306 360.753L246.138 370.086L262.204 379.374L278.373 370.027L262.306 360.753Z" fill="#072359"/>
<path d="M476.723 164.424C492.63 173.611 494.348 187.522 480.583 195.483L364.009 262.866C350.229 270.827 326.18 269.821 310.274 260.635L38.9177 103.808C23.521 94.9128 21.4089 81.5996 33.7903 73.5359C17.0245 84.1952 18.3791 103.618 32.9746 115.983C34.6643 117.456 36.6453 118.885 38.9322 120.198L310.274 277.025C326.18 286.211 350.229 287.217 364.009 279.256C364.009 279.256 481.428 211.377 481.836 211.115C502.331 198.327 494.946 174.267 476.738 164.439L476.723 164.424Z" fill="url(#paint0_linear_171_645)"/>
<path d="M480.569 195.483L363.994 262.866C350.215 270.827 326.166 269.821 310.259 260.635L38.9178 103.808C23.0114 94.6212 21.2925 80.7102 35.0577 72.7485L151.647 5.38069C165.426 -2.58096 189.475 -1.57482 205.382 7.6117L476.723 164.439C492.63 173.625 494.349 187.536 480.583 195.498L480.569 195.483Z" fill="url(#paint1_linear_171_645)"/>
<path d="M361.358 259.089C349.079 266.19 329.167 266.219 316.975 259.176L41.467 99.9435C29.2604 92.8859 29.3333 81.3809 41.6127 74.2941L154.283 9.14276C166.563 2.04143 186.475 2.01227 198.667 9.05527L474.174 168.288C486.381 175.346 486.308 186.851 474.029 193.938L361.344 259.074L361.358 259.089Z" fill="url(#paint2_linear_171_645)"/>
<path d="M161.639 13.3861L147.684 21.4498C146.432 22.1789 146.417 23.36 147.684 24.0745C152.011 26.5826 151.996 30.6509 147.641 33.1736L83.2138 70.4154C78.8584 72.9381 71.8083 72.9527 67.4821 70.4446C66.2294 69.7155 64.1902 69.7301 62.9375 70.4446L48.9829 78.5083C40.7675 83.262 40.7238 90.932 48.8955 95.6565L324.403 254.89C332.56 259.614 345.845 259.585 354.06 254.831L466.745 189.694C474.961 184.941 475.004 177.271 466.833 172.546L191.296 13.3424C183.124 8.61786 169.854 8.64703 161.639 13.4007V13.3861Z" fill="#EBF5F8" stroke="#072359" stroke-width="0.2" stroke-miterlimit="10"/>
<path opacity="0.15" d="M464.516 186.865L349.107 253.577C343.616 256.756 334.031 256.348 327.68 252.688L312.517 243.924C306.18 240.264 305.481 234.723 310.973 231.544L426.382 164.832C431.873 161.654 441.458 162.062 447.809 165.722L462.972 174.485C469.309 178.145 470.008 183.687 464.516 186.865Z" fill="#4542D5"/>
<path d="M262.146 212.894L130.991 137.098L262.962 60.8206L394.117 136.617L262.146 212.894Z" fill="#EBF5F8"/>
<path d="M229.095 95.5543L224.871 97.9895L229.066 100.41L233.29 97.9749L229.095 95.5543Z" fill="#072359"/>
<path d="M216.379 112.6L229.052 105.28L224.842 102.86L220.647 100.425L216.423 102.874L220.633 105.295L207.96 112.615L212.155 115.05L207.931 117.485L203.736 115.065L199.54 112.63L195.316 115.079L199.511 117.5L195.287 119.95L199.482 122.37L203.706 119.921L207.902 122.356L203.677 124.791L207.872 127.226L216.321 122.341L212.126 119.906L216.35 117.471L220.545 119.891L224.769 117.456L220.574 115.036L216.379 112.6Z" fill="#072359"/>
<path d="M229.022 110.151L224.798 112.586L228.993 115.021L233.217 112.571L229.022 110.151Z" fill="#072359"/>
<path d="M220.515 124.762L224.711 127.182L228.92 129.617L233.13 127.168L228.935 124.747L224.74 122.327L220.545 119.891L216.32 122.341L220.515 124.762Z" fill="#072359"/>
<path d="M224.77 117.456L228.965 119.877L233.189 117.442L228.994 115.021L224.77 117.456Z" fill="#072359"/>
<path d="M250.085 107.672L245.89 105.251L241.695 102.831L233.247 107.701L237.442 110.136L241.637 112.557L233.188 117.442L237.384 119.862L241.608 117.427L245.803 119.848L250.027 117.412L245.832 114.977L250.056 112.542L245.861 110.122L250.085 107.672Z" fill="#072359"/>
<path d="M220.487 129.632L216.292 127.211L212.067 129.647L216.277 132.067L220.472 134.502L224.696 132.053L220.487 129.632Z" fill="#072359"/>
<path d="M237.354 124.733L241.549 127.153L245.759 129.588L254.193 124.703L249.998 122.283L245.774 124.718L241.579 122.297L237.383 119.862L233.159 122.312L237.354 124.733Z" fill="#072359"/>
<path d="M258.476 112.528L254.281 110.107L250.057 112.542L254.252 114.963L258.447 117.398L262.671 114.948L258.476 112.528Z" fill="#072359"/>
<path d="M283.792 102.743L279.567 105.193L283.762 107.613L287.987 105.178L283.792 102.743Z" fill="#072359"/>
<path d="M288.017 100.308L292.212 102.729L296.436 100.293L292.241 97.8728L288.017 100.308Z" fill="#072359"/>
<path d="M300.631 102.714L304.855 100.279L300.66 97.8583L296.436 100.293L300.631 102.714Z" fill="#072359"/>
<path d="M287.929 114.904L292.153 112.469L287.958 110.049L283.763 107.614L279.538 110.063L275.343 107.628L271.119 110.078L275.314 112.498L279.509 114.919L283.734 112.484L287.929 114.904Z" fill="#072359"/>
<path d="M296.377 110.019L300.601 107.584L296.406 105.164L292.182 107.599L296.377 110.019Z" fill="#072359"/>
<path d="M279.48 119.789L283.705 117.354L279.509 114.919L275.285 117.369L271.09 114.934L266.895 112.513L262.671 114.948L266.866 117.383L262.642 119.818L258.447 117.398L254.222 119.833L258.417 122.268L262.627 124.689L245.73 134.444L249.925 136.879L245.701 139.314L241.506 136.894L237.311 134.459L241.535 132.023L237.34 129.603L216.219 141.808L220.414 144.228L233.087 136.908L237.282 139.329L224.609 146.649L228.804 149.084L237.253 144.199L241.448 146.62L245.672 144.185L249.867 146.605L254.062 149.04L249.838 151.475L254.048 153.896L258.272 151.461L262.467 153.881L270.915 149.011L266.706 146.576L262.481 149.026L258.286 146.591L262.511 144.155L258.315 141.72L254.091 144.17L249.896 141.749L254.12 139.3L258.315 141.72L262.54 139.285L258.345 136.865L254.149 134.429L271.046 124.674L266.837 122.239L271.061 119.804L275.271 122.224L271.046 124.674L275.241 127.095L283.69 122.21L279.48 119.789Z" fill="#072359"/>
<path d="M237.223 149.069L232.999 151.505L237.209 153.925L241.418 151.49L237.223 149.069Z" fill="#072359"/>
<path d="M266.793 131.98L270.988 134.4L279.437 129.53L275.241 127.095L266.793 131.98Z" fill="#072359"/>
<path d="M308.992 112.44L317.44 107.555L313.245 105.135L304.797 110.005L308.992 112.44Z" fill="#072359"/>
<path d="M270.959 139.271L266.764 136.85L262.54 139.285L266.735 141.706L270.959 139.271Z" fill="#072359"/>
<path d="M249.823 156.346L245.628 153.925L241.404 156.36L237.209 153.94L228.76 158.825L224.565 156.404L220.37 153.984L216.175 151.563L220.399 149.128L216.204 146.707L212.009 144.287L190.888 156.492L195.083 158.912L199.278 161.333L203.473 163.753L211.921 158.868L207.726 156.448L203.502 158.883L199.307 156.462L203.531 154.027L207.726 156.448L211.951 154.013L216.146 156.433L211.921 158.868L216.117 161.289L207.668 166.174L211.863 168.594L216.058 171.015L220.253 173.436L224.449 175.856L228.644 178.277L232.868 175.842L228.673 173.421L224.478 171L220.283 168.58L216.087 166.159L224.536 161.274L228.731 163.695L232.926 166.116L228.702 168.551L232.897 170.971L241.345 166.086L245.541 168.507L249.765 166.072L245.57 163.651L249.794 161.216L245.599 158.795L249.823 156.36V156.346ZM237.15 163.666L232.955 161.245L237.179 158.81L241.375 161.231L237.15 163.666Z" fill="#072359"/>
<path d="M279.408 134.386L275.184 136.835L279.379 139.256L283.574 141.677L287.798 139.241L283.603 136.821L279.408 134.386Z" fill="#072359"/>
<path d="M313.173 119.731L317.397 117.281L321.592 119.716L325.816 117.267L330.011 119.702L334.206 122.122L325.758 127.007L329.953 129.428L342.626 122.108L338.431 119.687L334.236 117.252L330.04 114.831L325.831 112.411L321.636 109.976L308.978 117.31L313.173 119.731Z" fill="#072359"/>
<path d="M254.047 153.896L249.823 156.346L254.018 158.766L249.794 161.201L253.989 163.637L262.438 158.752L266.633 161.172L270.828 163.607L275.052 161.158L270.857 158.737L275.081 156.302L270.886 153.867L266.662 156.317L262.467 153.881L258.242 156.331L254.047 153.896Z" fill="#072359"/>
<path d="M279.349 144.126L275.154 141.691L270.93 144.141L275.125 146.561L279.334 148.982L283.559 146.547L279.349 144.126Z" fill="#072359"/>
<path d="M291.978 146.532L296.173 148.953L300.368 151.388L304.593 148.938L300.398 146.518L296.188 144.097L291.993 141.662L287.769 144.112L291.978 146.532Z" fill="#072359"/>
<path d="M313.055 139.198L317.28 136.748L313.085 134.327L308.86 136.762L313.055 139.198Z" fill="#072359"/>
<path d="M321.533 129.442L317.338 127.022L321.562 124.587L317.367 122.166L300.47 131.936L296.275 129.515L300.499 127.08L296.304 124.66L300.529 122.224L304.724 124.645L308.948 122.21L304.753 119.789L300.558 117.369L304.782 114.934L300.587 112.513L283.69 122.283L287.885 124.703L279.437 129.588L283.632 132.009L287.856 129.574L292.051 131.994L296.246 134.415L287.798 139.3L291.993 141.72L296.217 139.285L300.412 141.706L304.607 144.126L308.802 146.547L312.997 148.967L308.773 151.403L312.968 153.823L321.417 148.938L317.222 146.518L321.446 144.082L325.641 146.503L329.865 144.068L325.67 141.647L329.894 139.212L334.089 141.633L338.284 144.053L321.388 153.823L325.583 156.244L350.928 141.604L346.733 139.183L342.509 141.618L338.314 139.198L334.119 136.777L338.343 134.342L334.148 131.921L329.953 129.501L325.728 131.936L321.533 129.515V129.442ZM325.699 136.733L313.026 144.053L308.831 141.633L304.636 139.212L300.441 136.792L313.114 129.472L317.309 131.892L321.504 134.313L325.699 136.733Z" fill="#072359"/>
<path d="M283.443 166.013L279.248 163.593L275.023 166.028L279.219 168.449L283.414 170.884L287.623 173.304L291.818 175.725L296.014 178.16L300.238 175.71L296.043 173.29L291.848 170.869L296.057 168.419L300.267 170.855L304.477 168.405L300.281 165.984L296.086 163.564L287.638 168.434L283.443 166.013Z" fill="#072359"/>
<path d="M300.339 156.244L296.144 153.823L291.92 156.273L287.725 153.838L291.949 151.403L287.754 148.967L279.306 153.852L283.501 156.287L287.696 158.708L283.472 161.143L287.667 163.578L296.115 158.693L300.31 161.114L304.505 163.549L308.701 165.97L312.925 163.535L308.73 161.099L317.178 156.215L312.983 153.794L304.535 158.679L300.339 156.244Z" fill="#072359"/>
<path d="M346.762 134.269L342.538 136.704L346.748 139.139L350.972 136.689L346.762 134.269Z" fill="#072359"/>
<path d="M355.182 134.254L359.406 131.805L355.211 129.384L351.016 126.964L342.567 131.848L346.762 134.269L350.987 131.834L355.182 134.254Z" fill="#072359"/>
<path d="M355.167 139.125L350.942 141.56L355.137 143.98L367.81 136.66L363.615 134.24L359.391 136.675L355.181 134.254L350.972 136.689L355.167 139.125Z" fill="#072359"/>
<path d="M321.344 163.505L317.149 161.085L312.925 163.535L317.12 165.955L321.344 163.505Z" fill="#072359"/>
<path d="M325.568 161.07L329.792 158.635L325.597 156.2L321.373 158.65L325.568 161.07Z" fill="#072359"/>
<path d="M212.053 134.517L207.858 132.096L203.663 129.676L199.467 127.255L195.272 124.835L191.077 122.414L186.882 119.993L157.312 137.083L161.508 139.504L165.703 141.924L169.898 144.345L174.093 146.766L178.288 149.186L182.483 151.607L186.678 154.027L216.248 136.937L212.053 134.517ZM186.707 149.157L182.512 146.736L178.317 144.316L174.122 141.895L169.927 139.475L165.732 137.054L186.853 124.849L191.048 127.27L195.243 129.69L199.438 132.111L203.633 134.531L207.829 136.952L186.707 149.157Z" fill="#072359"/>
<path d="M186.737 144.287L199.409 136.967L186.809 129.69L174.137 137.01L186.737 144.287Z" fill="#072359"/>
<path d="M233.319 93.1046L237.514 95.5252L241.71 97.9458L245.905 100.366L250.1 102.787L254.295 105.207L258.49 107.628L262.685 110.049L292.255 92.9588L288.06 90.5382L283.865 88.1176L279.669 85.6971L275.474 83.2765L271.279 80.8559L267.084 78.4353L262.889 76.0148L233.319 93.1046ZM267.055 83.3057L271.25 85.7262L275.445 88.1468L279.64 90.5674L283.835 92.988L262.714 105.193L258.519 102.772L254.324 100.352L250.129 97.9312L245.934 95.5106L241.739 93.09L262.86 80.8851L267.055 83.3057Z" fill="#072359"/>
<path d="M262.831 85.7554L250.158 93.0754L262.758 100.352L275.416 93.0317L262.831 85.7554Z" fill="#072359"/>
<path d="M237.049 183.132L241.244 185.553L245.439 187.974L249.634 190.394L253.829 192.815L258.024 195.235L262.219 197.656L291.789 180.566L287.594 178.146L283.399 175.725L279.204 173.304L275.008 170.884L270.813 168.463L266.618 166.043L262.423 163.622L232.854 180.712L237.049 183.132ZM262.394 168.492L266.589 170.913L270.784 173.334L274.979 175.754L279.174 178.175L283.37 180.595L262.248 192.8L258.053 190.38L253.858 187.959L249.663 185.538L245.468 183.118L241.273 180.697L262.394 168.492Z" fill="#072359"/>
<path d="M262.351 173.348L249.692 180.668L262.278 187.945L274.95 180.624L262.351 173.348Z" fill="#072359"/>
<path d="M159.658 145.38L155.958 147.524L137.896 137.083L156.074 126.57L159.745 128.699L145.266 137.069L159.658 145.38Z" fill="#7471FF"/>
<path d="M281.01 75.2419L277.324 77.3855L262.918 69.0593L248.439 77.4292L244.769 75.3149L262.947 64.8014L281.01 75.2419Z" fill="#7471FF"/>
<path d="M387.213 136.631L369.034 147.13L365.363 145.016L379.842 136.646L365.451 128.32L369.136 126.191L387.213 136.631Z" fill="#7471FF"/>
<path d="M280.34 198.385L262.161 208.899L244.099 198.458L247.784 196.329L262.19 204.641L276.669 196.271L280.34 198.385Z" fill="#7471FF"/>
<path d="M377.949 203.547C372.515 206.682 372.486 211.786 377.89 214.906C383.295 218.027 392.107 218.012 397.54 214.877C402.974 211.742 403.003 206.638 397.599 203.518C392.195 200.397 383.382 200.412 377.949 203.547Z" fill="#F7FEFE"/>
<path d="M373.054 200.718C364.897 205.443 364.854 213.069 372.967 217.75C381.08 222.445 394.278 222.416 402.435 217.691C410.592 212.967 410.636 205.341 402.522 200.66C394.409 195.965 381.212 195.994 373.054 200.718ZM398.72 215.548C392.632 219.062 382.741 219.091 376.696 215.592C370.636 212.092 370.68 206.376 376.769 202.862C382.858 199.347 392.748 199.318 398.793 202.818C404.853 206.318 404.809 212.034 398.72 215.548Z" fill="#F7FEFE"/>
<path d="M140.503 72.5735L140.561 62.235C140.561 61.8413 141.479 61.71 141.785 62.0746L146.679 67.849L150 65.9387C150.423 65.6909 151.151 65.8658 151.137 66.2158L151.078 76.5543C151.078 76.948 150.161 77.0792 149.855 76.7147L144.96 70.9403L141.639 72.8505C141.217 73.0984 140.489 72.9234 140.503 72.5735Z" fill="#FFAF65"/>
<g style="mix-blend-mode:soft-light">
<path d="M186.591 11.3155C178.638 8.79284 168.412 9.47818 161.639 13.4007L147.684 21.4644C146.432 22.1935 146.417 23.3746 147.684 24.0891C152.011 26.5972 151.996 30.6655 147.641 33.1882L83.2138 70.43C78.8584 72.9527 71.8083 72.9672 67.4821 70.4592C66.2294 69.7301 64.1902 69.7447 62.9375 70.4592L48.9829 78.5229C40.7675 83.2766 40.7238 90.9466 48.8955 95.6711L185.746 174.763L186.635 11.3009L186.591 11.3155Z" fill="white"/>
</g>
<path d="M324.607 108.27L213.087 172.721L250.857 194.55L362.377 130.099L324.607 108.27Z" fill="url(#paint3_linear_171_645)"/>
<path d="M99.1493 147.188C99.1493 146.561 98.7705 145.847 98.3044 145.584L77.3872 133.496C77.1832 133.38 76.9939 133.38 76.8482 133.467H76.8337L75.042 134.488L97.0663 148.909L98.8579 147.874H98.8434C99.0327 147.757 99.1493 147.538 99.1493 147.188Z" fill="url(#paint4_linear_171_645)"/>
<path d="M75.6105 136.777L96.5277 148.865C96.9938 149.128 97.3726 148.851 97.3726 148.224C97.3726 147.597 96.9938 146.882 96.5277 146.62L75.6105 134.532C75.1443 134.269 74.7656 134.546 74.7656 135.173C74.7656 135.8 75.1443 136.515 75.6105 136.777Z" fill="#BAB8FF"/>
<path d="M127.598 163.637C127.598 163.01 127.219 162.295 126.753 162.033L105.835 149.944C105.631 149.828 105.442 149.828 105.296 149.915H105.282L103.49 150.936L125.515 165.357L127.306 164.322H127.292C127.481 164.205 127.598 163.987 127.598 163.637Z" fill="url(#paint5_linear_171_645)"/>
<path d="M104.059 153.211L124.976 165.299C125.442 165.562 125.821 165.284 125.821 164.657C125.821 164.03 125.442 163.316 124.976 163.053L104.059 150.965C103.593 150.703 103.214 150.98 103.214 151.607C103.214 152.234 103.593 152.948 104.059 153.211Z" fill="#BAB8FF"/>
<g filter="url(#filter0_f_171_645)">
<path d="M480.074 359.947L340.586 448.335C337.488 450.298 333.563 450.408 330.36 448.62L19.6319 275.166C12.9621 271.443 12.7606 261.919 19.2669 257.917L164.749 168.43C167.866 166.512 171.782 166.451 174.958 168.27L479.692 342.823C486.227 346.566 486.436 355.916 480.074 359.947Z" fill="#6965FF" fill-opacity="0.08"/>
</g>
<defs>
<filter id="filter0_f_171_645" x="0.505859" y="152.948" width="498.216" height="310.94" filterUnits="userSpaceOnUse" color-interpolation-filters="sRGB">
<feFlood flood-opacity="0" result="BackgroundImageFix"/>
<feBlend mode="normal" in="SourceGraphic" in2="BackgroundImageFix" result="shape"/>
<feGaussianBlur stdDeviation="7" result="effect1_foregroundBlur_171_645"/>
</filter>
<linearGradient id="paint0_linear_171_645" x1="390.986" y1="219.295" x2="77.3708" y2="41.2458" gradientUnits="userSpaceOnUse">
<stop stop-color="#4542D5"/>
<stop offset="0.58" stop-color="#8784FF"/>
<stop offset="1" stop-color="#A29FFF"/>
</linearGradient>
<linearGradient id="paint1_linear_171_645" x1="176.081" y1="366.314" x2="98.2196" y2="32.7526" gradientUnits="userSpaceOnUse">
<stop stop-color="#6965FF"/>
<stop offset="0.15" stop-color="#4542D5"/>
<stop offset="0.53" stop-color="#6460FF"/>
<stop offset="0.83" stop-color="#7D79FF"/>
<stop offset="1" stop-color="#6965FF"/>
</linearGradient>
<linearGradient id="paint2_linear_171_645" x1="52.8152" y1="55.4117" x2="223.447" y2="350.641" gradientUnits="userSpaceOnUse">
<stop stop-color="#010030"/>
<stop offset="1" stop-color="#0A0862"/>
</linearGradient>
<linearGradient id="paint3_linear_171_645" x1="144.094" y1="213.681" x2="161.259" y2="243.379" gradientUnits="userSpaceOnUse">
<stop offset="0.62" stop-color="#6965FF" stop-opacity="0"/>
<stop offset="0.66" stop-color="#6965FF" stop-opacity="0.02"/>
<stop offset="0.7" stop-color="#6965FF" stop-opacity="0.08"/>
<stop offset="0.734375" stop-color="#FFAF65" stop-opacity="0.29"/>
<stop offset="0.79" stop-color="#FFAF65" stop-opacity="0.35"/>
<stop offset="0.84" stop-color="#FFAF65" stop-opacity="0.35"/>
<stop offset="0.88" stop-color="#FFAF65" stop-opacity="0.58"/>
<stop offset="0.93" stop-color="#FFAF65" stop-opacity="0.75"/>
<stop offset="0.95" stop-color="#FFAF65" stop-opacity="0.82"/>
<stop offset="1" stop-color="#FFAF65"/>
</linearGradient>
<linearGradient id="paint4_linear_171_645" x1="75.479" y1="134.531" x2="97.1794" y2="146.819" gradientUnits="userSpaceOnUse">
<stop stop-color="#9593FF"/>
<stop offset="1" stop-color="#312F92"/>
</linearGradient>
<linearGradient id="paint5_linear_171_645" x1="103.927" y1="150.98" x2="125.628" y2="163.252" gradientUnits="userSpaceOnUse">
<stop stop-color="#6965FF"/>
<stop offset="1" stop-color="#090762"/>
</linearGradient>
</defs>
</svg>
